<svg width="100" height="100" viewBox="0 0 100 100" fill="none" xmlns="http://www.w3.org/2000/svg">
<g clip-path="url(#clip0_2555_4)">
<path fill-rule="evenodd" clip-rule="evenodd" d="M100 50C100 77.6142 77.6142 100 50 100C22.3858 100 0 77.6142 0 50C0 22.3858 22.3858 0 50 0C77.6142 0 100 22.3858 100 50ZM73.7235 82.2088C67.0862 87.1057 58.8811 90 50 90C27.9086 90 10 72.0914 10 50C10 41.1189 12.8943 32.9138 17.7912 26.2765L73.7235 82.2088ZM82.2088 73.7235L26.2765 17.7912C32.9138 12.8943 41.1189 10 50 10C72.0914 10 90 27.9086 90 50C90 58.8811 87.1057 67.0862 82.2088 73.7235Z" fill="#EA1D1D"/>
</g>
<defs>
<clipPath id="clip0_2555_4">
<rect width="100" height="100" fill="white"/>
</clipPath>
</defs>
</svg>
